<svg width="14" height="14" viewBox="0 0 14 14" fill="none" xmlns="http://www.w3.org/2000/svg">
<g clip-path="url(#clip0_1509_8268)">
<path fill-rule="evenodd" clip-rule="evenodd" d="M10.429 1.52637L10.4692 5.05506L7.39147 6.53252L7.35352 3.20076L10.429 1.52637Z" fill="#73CEC0"/>
<path fill-rule="evenodd" clip-rule="evenodd" d="M13.5143 7.08667L10.4675 8.82939L7.41895 7.08392L10.4659 5.4834L13.5143 7.08667Z" fill="#73CEC0"/>
<path fill-rule="evenodd" clip-rule="evenodd" d="M6.87757 7.08667L3.83081 8.82939L0.782227 7.08392L3.82923 5.4834L6.87757 7.08667Z" fill="#73CEC0"/>
<path fill-rule="evenodd" clip-rule="evenodd" d="M3.79639 1.51172L6.95871 3.0779L6.87786 6.49095L3.89203 5.01219L3.79639 1.51172Z" fill="#73CEC0"/>
<path fill-rule="evenodd" clip-rule="evenodd" d="M10.5154 12.6082L7.35303 11.042L7.43388 7.62891L10.4197 9.10769L10.5154 12.6082Z" fill="#73CEC0"/>
<path fill-rule="evenodd" clip-rule="evenodd" d="M3.90543 12.6399L3.86523 9.11125L6.94301 7.63379L6.98096 10.9655L3.90543 12.6399Z" fill="#73CEC0"/>
</g>
<defs>
<clipPath id="clip0_1509_8268">
<rect width="13.0588" height="13.0588" fill="white" transform="translate(0.627441 0.530273)"/>
</clipPath>
</defs>
</svg>
